<svg xmlns="http://www.w3.org/2000/svg" xmlns:xlink="http://www.w3.org/1999/xlink" viewBox="0 0 916.28 916.28"><defs><style>.cls-1{isolation:isolate;}.cls-2,.cls-6{fill:none;}.cls-3{opacity:0.15;fill:url(#radial-gradient);}.cls-3,.cls-4,.cls-5,.cls-6{mix-blend-mode:screen;}.cls-4{opacity:0.5;fill:url(#radial-gradient-2);}.cls-5{fill:url(#radial-gradient-3);}.cls-6{stroke:#fff;stroke-miterlimit:10;stroke-width:2px;opacity:0.03;}</style><radialGradient id="radial-gradient" cx="458.14" cy="458.14" r="216.17" gradientUnits="userSpaceOnUse"><stop offset="0" stop-color="#230000"/><stop offset="0.73" stop-color="#93432a"/><stop offset="1" stop-color="#230000"/></radialGradient><radialGradient id="radial-gradient-2" cx="458.14" cy="458.14" r="108.08" gradientUnits="userSpaceOnUse"><stop offset="0.15" stop-color="#fff"/><stop offset="0.21" stop-color="#e2d1d2"/><stop offset="0.29" stop-color="#bf9a9c"/><stop offset="0.36" stop-color="#a67276"/><stop offset="0.42" stop-color="#975a5e"/><stop offset="0.45" stop-color="#915155"/><stop offset="0.56" stop-color="#6c3638"/><stop offset="0.68" stop-color="#44191a"/><stop offset="0.79" stop-color="#2c0707"/><stop offset="0.85" stop-color="#230000"/><stop offset="0.86" stop-color="#270201"/><stop offset="0.86" stop-color="#340805"/><stop offset="0.87" stop-color="#48120b"/><stop offset="0.88" stop-color="#652114"/><stop offset="0.89" stop-color="#8b331f"/><stop offset="0.9" stop-color="#b8492d"/><stop offset="0.9" stop-color="#d65836"/><stop offset="0.9" stop-color="#c95232"/><stop offset="0.91" stop-color="#9d3c25"/><stop offset="0.93" stop-color="#782a1a"/><stop offset="0.94" stop-color="#591b10"/><stop offset="0.95" stop-color="#410f09"/><stop offset="0.97" stop-color="#300604"/><stop offset="0.98" stop-color="#260201"/><stop offset="1" stop-color="#230000"/></radialGradient><radialGradient id="radial-gradient-3" cx="458.14" cy="458.14" r="90.07" gradientUnits="userSpaceOnUse"><stop offset="0.15" stop-color="#fff"/><stop offset="0.28" stop-color="#c2c2c2"/><stop offset="0.43" stop-color="#888"/><stop offset="0.56" stop-color="#575757"/><stop offset="0.69" stop-color="#313131"/><stop offset="0.81" stop-color="#161616"/><stop offset="0.92" stop-color="#060606"/><stop offset="1"/></radialGradient></defs><title>flares</title><g class="cls-1"><g id="Layer_1" data-name="Layer 1"><line class="cls-2" x1="458.14" y1="458.14" x2="547.08" y2="519.55"/><circle class="cls-2" cx="458.14" cy="458.14" r="90.07"/><circle class="cls-2" cx="458.14" cy="458.14" r="108.08"/><polyline class="cls-2" points="458.14 458.14 477 481.55 458.14 458.14 439.28 434.73 458.14 458.14 434.73 477 458.14 458.14 481.55 439.28 458.14 458.14 516.69 648.33 458.14 458.14 399.59 267.95 458.14 458.14 267.95 516.69 458.14 458.14 648.33 399.59 458.14 458.14 665.21 871.46 458.14 458.14 251.07 44.82 458.14 458.14 44.82 665.21 458.14 458.14 871.46 251.07 458.14 458.14 542.48 608.4 458.14 458.14 373.8 307.88 458.14 458.14 307.88 542.48 458.14 458.14 608.4 373.8 458.14 458.14 489.48 532.01 458.14 458.14 426.81 384.28 458.14 458.14 384.28 489.48 458.14 458.14 532.01 426.81 458.14 458.14 916.15 397.36 458.14 458.14 0.13 518.92 458.14 458.14 518.92 916.15 458.14 458.14 397.36 0.13 458.14 458.14 718.19 636.74 458.14 458.14 198.09 279.54 458.14 458.14 279.54 718.19 458.14 458.14 636.74 198.09 458.14 458.14 566.41 592.13 458.14 458.14 349.87 324.15 458.14 458.14 324.15 566.41 458.14 458.14 592.13 349.87 458.14 458.14 821.24 746.5 458.14 458.14 95.04 169.78 458.14 458.14 169.78 821.24 458.14 458.14 746.5 95.04 458.14 458.14 488.63 489.89 458.14 458.14 427.65 426.39 458.14 458.14 426.39 488.63 458.14 458.14 489.89 427.65 458.14 458.14 732.66 571.65 458.14 458.14 183.62 344.63 458.14 458.14 344.63 732.66 458.14 458.14 571.65 183.62 458.14 458.14 586.04 765.94 458.14 458.14 330.24 150.34 458.14 458.14 150.34 586.04 458.14 458.14 765.94 330.24 458.14 458.14 712.65 874.4 458.14 458.14 203.63 41.88 458.14 458.14 41.88 712.65 458.14 458.14 874.4 203.63 458.14 458.14 755.52 784.81 458.14 458.14 160.76 131.47 458.14 458.14 131.47 755.52 458.14 458.14 784.81 160.76 458.14 458.14 480.09 562.94 458.14 458.14 436.19 353.35 458.14 458.14 353.35 480.09 458.14 458.14 562.94 436.19"/><circle class="cls-3" cx="458.14" cy="458.14" r="216.17"/><circle class="cls-4" cx="458.14" cy="458.14" r="108.08"/><circle class="cls-5" cx="458.14" cy="458.14" r="90.07"/><polyline class="cls-6" points="458.14 458.14 477 481.55 458.14 458.14 439.28 434.73 458.14 458.14 434.73 477 458.14 458.14 481.55 439.28 458.14 458.14 516.69 648.33 458.14 458.14 399.59 267.95 458.14 458.14 267.95 516.69 458.14 458.14 648.33 399.59 458.14 458.14 665.21 871.46 458.14 458.14 251.07 44.82 458.14 458.14 44.82 665.21 458.14 458.14 871.46 251.07 458.14 458.14 542.48 608.4 458.14 458.14 373.8 307.88 458.14 458.14 307.88 542.48 458.14 458.14 608.4 373.8 458.14 458.14 489.48 532.01 458.14 458.14 426.81 384.28 458.14 458.14 384.28 489.48 458.14 458.14 532.01 426.81 458.14 458.14 916.15 397.36 458.14 458.14 0.13 518.92 458.14 458.14 518.92 916.15 458.14 458.14 397.36 0.13 458.14 458.14 718.19 636.74 458.14 458.14 198.09 279.54 458.14 458.14 279.54 718.19 458.14 458.14 636.74 198.09 458.14 458.14 566.41 592.13 458.14 458.14 349.87 324.15 458.14 458.14 324.15 566.41 458.14 458.14 592.13 349.87 458.14 458.14 821.24 746.5 458.14 458.14 95.04 169.78 458.14 458.14 169.78 821.24 458.14 458.14 746.5 95.04 458.14 458.14 488.63 489.89 458.14 458.14 427.65 426.39 458.14 458.14 426.39 488.63 458.14 458.14 489.89 427.65 458.14 458.14 732.66 571.65 458.14 458.14 183.62 344.63 458.14 458.14 344.63 732.66 458.14 458.14 571.65 183.62 458.14 458.14 586.04 765.94 458.14 458.14 330.24 150.34 458.14 458.14 150.34 586.04 458.14 458.14 765.94 330.24 458.14 458.14 712.65 874.4 458.14 458.14 203.63 41.88 458.14 458.14 41.88 712.65 458.14 458.14 874.4 203.63 458.14 458.14 755.52 784.81 458.14 458.14 160.76 131.47 458.14 458.14 131.47 755.52 458.14 458.14 784.81 160.76 458.14 458.14 480.09 562.94 458.14 458.14 436.19 353.35 458.14 458.14 353.35 480.09 458.14 458.14 562.94 436.19"/></g></g></svg>